
<svg version="1.0" xmlns="http://www.w3.org/2000/svg"
 width="900.000000pt" height="1257.000000pt" viewBox="0 0 900.000000 1257.000000"
 preserveAspectRatio="xMidYMid meet">
<g transform="translate(0.000000,1257.000000) scale(0.100000,-0.100000)"
fill="#000000" stroke="none">
<path d="M267 12556 c-3 -7 -18 -17 -34 -20 -100 -25 -197 -137 -222 -256 -9
-41 -11 -1108 -9 -4325 l3 -4269 40 -8 c39 -8 74 -22 144 -56 52 -25 152 -123
188 -183 18 -30 46 -92 63 -138 26 -73 30 -97 30 -189 0 -66 -5 -115 -14 -135
-7 -18 -20 -52 -27 -77 -31 -100 -147 -237 -246 -289 -64 -33 -138 -61 -166
-61 -17 0 -17 -55 -15 -1147 l3 -1148 27 -57 c32 -69 97 -136 163 -169 l50
-24 4245 0 4245 0 50 24 c27 14 68 43 91 66 42 43 94 138 94 174 0 12 7 21 15
21 13 0 15 132 15 1124 l0 1124 -52 7 c-159 20 -307 110 -396 239 -39 57 -58
104 -92 236 -14 52 -11 170 5 215 8 22 15 47 15 56 0 26 40 109 82 171 51 74
119 134 188 166 30 13 63 29 73 34 10 5 54 14 97 20 l80 11 0 4284 c0 3800 -2
4283 -15 4283 -9 0 -15 9 -15 23 -1 31 -34 102 -70 147 -33 42 -110 95 -153
106 -16 3 -31 13 -34 20 -8 21 -8438 21 -8446 0z m8428 -57 c69 -20 205 -138
205 -178 0 -6 8 -24 18 -38 16 -26 17 -251 22 -4276 3 -2337 3 -4252 0 -4256
-3 -4 -35 -12 -72 -18 -98 -16 -206 -74 -283 -151 -79 -79 -125 -156 -164
-273 -46 -138 -43 -282 9 -414 26 -66 35 -85 71 -140 86 -133 245 -241 372
-252 l67 -6 -2 -1101 -3 -1101 -28 -52 c-15 -29 -39 -66 -53 -82 -35 -42 -117
-100 -156 -112 -51 -14 -8375 -12 -8419 2 -68 23 -199 140 -199 178 0 6 -8 24
-18 38 -16 25 -17 99 -20 1127 -3 1183 -5 1116 49 1116 30 0 142 55 197 96 20
16 55 48 77 72 38 42 104 139 105 154 0 4 5 19 12 35 43 105 47 129 47 253 0
95 -4 137 -18 175 -23 64 -67 161 -80 177 -68 83 -111 130 -136 151 -47 38
-139 85 -197 100 l-53 13 0 4260 0 4259 28 52 c15 29 39 66 53 82 38 45 118
100 164 114 59 17 8346 13 8405 -4z"/>
</g>
</svg>
