<svg width="35" height="35" viewBox="0 0 35 35" fill="none" xmlns="http://www.w3.org/2000/svg">
<path d="M3.64978 23.2843L3.17328 24.1634L3.64978 23.2843L2.16858 22.4815L2.89503 20.9614L1.99277 20.5302L2.89503 20.9614C3.25254 20.2133 3.11141 19.3222 2.54022 18.7212L1.82772 19.3984L2.54022 18.7212L1.37959 17.5L2.54022 16.2788C3.1114 15.6778 3.25254 14.7867 2.89503 14.0386L2.16858 12.5185L3.64978 11.7157C4.37872 11.3207 4.78832 10.5168 4.67948 9.69484L4.45831 8.02466L6.11509 7.71889C6.93044 7.56841 7.56841 6.93045 7.71889 6.11509L8.02466 4.45831L9.69484 4.67948C10.5168 4.78832 11.3207 4.37873 11.7157 3.64978L12.5185 2.16858L14.0386 2.89503C14.7867 3.25254 15.6778 3.11141 16.2788 2.54022L17.5 1.37959L18.7212 2.54022C19.3222 3.11141 20.2133 3.25254 20.9614 2.89503L22.4815 2.16858L23.2843 3.64977C23.6793 4.37872 24.4832 4.78832 25.3052 4.67948L26.9753 4.45831L27.2811 6.11509C27.4316 6.93044 28.0696 7.56841 28.8849 7.71889L30.5417 8.02466L30.3205 9.69484C30.2117 10.5168 30.6213 11.3207 31.3502 11.7157L32.8314 12.5185L32.105 14.0386C31.7475 14.7867 31.8886 15.6778 32.4598 16.2788L33.6204 17.5L32.4598 18.7212C31.8886 19.3222 31.7475 20.2133 32.105 20.9614L32.8314 22.4815L31.3502 23.2843C30.6213 23.6793 30.2117 24.4832 30.3205 25.3052L30.5417 26.9753L28.8849 27.2811C28.0696 27.4316 27.4316 28.0696 27.2811 28.8849L26.9753 30.5417L25.3052 30.3205C24.4832 30.2117 23.6793 30.6213 23.2843 31.3502L22.4815 32.8314L20.9614 32.105C20.2133 31.7475 19.3222 31.8886 18.7212 32.4598L17.5 33.6204L16.2788 32.4598L15.5899 33.1846L16.2788 32.4598C15.6778 31.8886 14.7867 31.7475 14.0386 32.105L12.5185 32.8314L11.7157 31.3502C11.3207 30.6213 10.5168 30.2117 9.69484 30.3205L8.02466 30.5417L7.71889 28.8849C7.56841 28.0696 6.93044 27.4316 6.11509 27.2811L4.45831 26.9753L4.67948 25.3052C4.78832 24.4832 4.37872 23.6793 3.64978 23.2843Z" stroke="white" stroke-width="2"/>
<path d="M18.0469 21.7727V21.0057C18.0469 20.4233 18.17 19.8883 18.4162 19.4006C18.6671 18.9081 19.0294 18.5152 19.5028 18.2216C19.9811 17.9233 20.5634 17.7741 21.25 17.7741C21.946 17.7741 22.5308 17.9209 23.0043 18.2145C23.4825 18.508 23.8423 18.901 24.0838 19.3935C24.33 19.8812 24.4531 20.4186 24.4531 21.0057V21.7727C24.4531 22.3551 24.33 22.8925 24.0838 23.3849C23.8376 23.8726 23.4754 24.2633 22.9972 24.5568C22.5189 24.8551 21.9366 25.0043 21.25 25.0043C20.554 25.0043 19.9692 24.8551 19.4957 24.5568C19.0223 24.2633 18.6624 23.8726 18.4162 23.3849C18.17 22.8925 18.0469 22.3551 18.0469 21.7727ZM20.1136 21.0057V21.7727C20.1136 22.1089 20.1941 22.4261 20.3551 22.7244C20.5208 23.0227 20.8191 23.1719 21.25 23.1719C21.6809 23.1719 21.9744 23.0251 22.1307 22.7315C22.2917 22.438 22.3722 22.1184 22.3722 21.7727V21.0057C22.3722 20.66 22.2964 20.3381 22.1449 20.0398C21.9934 19.7415 21.6951 19.5923 21.25 19.5923C20.8239 19.5923 20.5279 19.7415 20.3622 20.0398C20.1965 20.3381 20.1136 20.66 20.1136 21.0057ZM10.5824 13.4489V12.6818C10.5824 12.0947 10.7079 11.5573 10.9588 11.0696C11.2098 10.5772 11.572 10.1842 12.0455 9.89062C12.5237 9.59706 13.1013 9.45028 13.7784 9.45028C14.4792 9.45028 15.0663 9.59706 15.5398 9.89062C16.0133 10.1842 16.3731 10.5772 16.6193 11.0696C16.8655 11.5573 16.9886 12.0947 16.9886 12.6818V13.4489C16.9886 14.036 16.8632 14.5734 16.6122 15.0611C16.366 15.5488 16.0038 15.9394 15.5256 16.233C15.0521 16.5218 14.4697 16.6662 13.7784 16.6662C13.0871 16.6662 12.5024 16.5194 12.0241 16.2259C11.5507 15.9276 11.1908 15.5369 10.9446 15.054C10.7031 14.5663 10.5824 14.0312 10.5824 13.4489ZM12.6634 12.6818V13.4489C12.6634 13.7945 12.7438 14.1141 12.9048 14.4077C13.0705 14.7012 13.3617 14.848 13.7784 14.848C14.214 14.848 14.5099 14.7012 14.6662 14.4077C14.8272 14.1141 14.9077 13.7945 14.9077 13.4489V12.6818C14.9077 12.3362 14.8319 12.0142 14.6804 11.7159C14.5289 11.4176 14.2282 11.2685 13.7784 11.2685C13.357 11.2685 13.0658 11.42 12.9048 11.723C12.7438 12.026 12.6634 12.3456 12.6634 12.6818ZM11.5199 24.5L21.5199 9.95455H23.3807L13.3807 24.5H11.5199Z" fill="white"/>
</svg>
